v 9.945206642 2.710867643 0.3551083803
vn 0.2055429071 -0.002874464262 0.9786438942
v -5.117297649 3.070242405 0.4552836418
vn -0.2406351417 0.03924119845 0.9698220491
v 0.03113754094 0.1561783552 2.192866325
vn -0.1604029834 -0.06544587761 0.9848795533
v 7.578014851 -5.734444618 -0.001448494499
vn 0.1143938601 -0.07029826939 0.9909451008
v -7.937608719 -6.687570095 -0.001856469898
vn -3.492786709e-005 -2.510615559e-005 1
v 6.847546577 10.44131756 -0.001801092643
vn 0.08668870479 0.1497687548 0.9849134088
v 1.265513301 10.60928345 -0.001682617702
vn -0.01308962516 0.2196762711 0.9754850268
v -3.921985149 9.671796799 -0.001711412449
vn -0.06562322378 0.09261628985 0.9935370088
v 1.39051342 8.390554428 0.534668684
vn -0.03049809299 0.2332905829 0.9719287157
v 6.031139851 6.843679905 0.6919721365
vn 0.1408578008 0.1635224372 0.9764320254
v -6.859484673 7.859304905 -0.001824321458
vn -0.03535622358 0.0260445755 0.9990353584
v 9.242079735 5.476492405 0.3192509711
vn 0.1661844254 0.1010547876 0.9809029698
v -4.937610149 6.374930382 0.2254189253
vn -0.1548995078 0.1017559394 0.9826758504
v 6.023327351 3.538992643 1.245700002
vn 0.2227571607 0.09033696353 0.9706794024
v -2.843859673 1.093678951 1.242449403
vn -0.295208782 0.007696697488 0.9554017782
v 9.878802299 -2.082101583 -0.001638243208
vn 0.2145646662 -0.1088748127 0.9706225991
v 4.859264851 -3.640694857 0.931826055
vn 0.1650002599 -0.2043173015 0.9648986459
v 6.132701874 -8.179757118 -0.001881026779
vn 0.09032008797 -0.1055795923 0.9903005958
v -4.703235149 -8.921943665 -0.001857141964
vn -7.063538214e-005 -5.028205487e-005 1
v 2.242076874 2.632742643 2.192962885
vn 0.01611601934 0.1574482918 0.9873957038
v 12.49989891 0.4999281168 -0.4271173179
vn 0.2532829642 -0.09040566534 0.9631586075
v -1.914172888 -1.882882476 1.286836267
vn -0.2196974754 -0.1852190495 0.9578240514
v -7.421985626 -2.703195095 -0.001738427905
vn -0.0766280666 -0.02059140429 0.9968470931
v 1.421763778 -3.671945095 1.237194538
vn -0.03051471151 -0.2621670961 0.9645399451
v -0.2344868034 -6.296945095 0.4075580537
vn -0.06070451438 -0.1980643123 0.9783074856
v -2.527453661 -7.496163368 -0.001631763647
vn -0.05427664146 -0.1067806184 0.9928000569
v -2.515735149 -10.64072609 -0.00186435366
vn -8.936255654e-006 -7.399905735e-005 1
v -1.578235507 3.734305143 1.311670065
vn -0.1967101991 0.1554529071 0.968059659
v -7.234485149 1.781179309 -0.001595880138
vn -0.1100174934 0.001278832089 0.9939288497
v 7.148327351 0.7421161532 1.023030281
vn 0.2635870278 -0.04629014432 0.9635243416
v -5.015735149 -1.765695572 0.4522207379
vn -0.221016705 -0.06620582193 0.9730202556
v -5.140735626 -6.015695095 -0.001741912798
vn -0.09348478168 -0.0833144784 0.9921286702
v 1.20301342 -9.703209877 -0.001761746593
vn -0.02614791505 -0.1011435315 0.9945281744
v 4.499890327 12.49989986 -0.1992854923
vn 0.008400560357 0.1667403132 0.9859650731
v 4.187390327 8.437429428 0.4971694946
vn 0.02647762559 0.2108768374 0.9771539569
v -1.433704019 10.6600666 -0.001880278229
vn -0.03031514212 0.188193202 0.9816640615
v 9.390518188 8.234304428 -0.001727232244
vn 0.1313113421 0.119161576 0.9841533899
v -1.937610149 7.062430382 0.598079741
vn -0.1077857539 0.1855704039 0.976701498
v 4.249890327 5.499929428 1.262032151
vn 0.1096702591 0.2283752412 0.9673764706
v 1.378794551 5.917898178 1.245762348
vn -0.05822933838 0.2510359883 0.96622473
v -7.156360626 5.281179905 -0.001742366934
vn -0.08440622687 0.0173473265 0.9962804317
v 3.148327351 -0.3672586083 2.192830324
vn 0.1573940068 -0.1127685457 0.9810761213
v 6.062389851 -1.562570214 1.125122786
vn 0.2688581049 -0.1601838768 0.9497665167
v -1.937610149 -4.312570095 0.7000889182
vn -0.1406106055 -0.1888066828 0.9718953967
v 3.453015327 -6.859445095 0.3959902823
vn 0.02572249807 -0.1789694577 0.9835183024
v 4.335827827 -9.726646423 -0.001830354449
vn 0.05544737354 -0.1135546938 0.9919833541
# mm_gid 0
g mmGroup0
f 35//35 6//6 34//34 
f 7//7 35//35 34//34 
f 9//9 35//35 7//7 
f 36//36 9//9 7//7 
f 10//10 37//37 6//6 
f 35//35 10//10 6//6 
f 38//38 9//9 36//36 
f 13//13 38//38 8//8 
f 40//40 39//39 35//35 
f 14//14 12//12 10//10 
f 28//28 40//40 38//38 
f 41//41 13//13 11//11 
f 39//39 14//14 10//10 
f 13//13 28//28 38//38 
f 41//41 2//2 13//13 
f 20//20 14//14 39//39 
f 29//29 2//2 41//41 
f 30//30 1//1 14//14 
f 2//2 15//15 28//28 
f 30//30 21//21 1//1 
f 42//42 30//30 14//14 
f 20//20 42//42 14//14 
f 3//3 42//42 20//20 
f 15//15 3//3 28//28 
f 31//31 15//15 2//2 
f 29//29 31//31 2//2 
f 16//16 21//21 30//30 
f 42//42 43//43 30//30 
f 22//22 3//3 15//15 
f 31//31 22//22 15//15 
f 23//23 31//31 29//29 
f 43//43 16//16 30//30 
f 24//24 42//42 3//3 
f 22//22 24//24 3//3 
f 24//24 17//17 42//42 
f 17//17 16//16 43//43 
f 44//44 24//24 22//22 
f 31//31 44//44 22//22 
f 23//23 32//32 31//31 
f 25//25 24//24 44//44 
f 5//5 32//32 23//23 
f 25//25 45//45 24//24 
f 32//32 26//26 44//44 
f 45//45 18//18 17//17 
f 25//25 33//33 45//45 
f 46//46 18//18 45//45 
f 33//33 46//46 45//45 
f 26//26 33//33 25//25 
f 19//19 32//32 5//5 
f 27//27 33//33 26//26 
f 8//8 38//38 36//36 
f 11//11 13//13 8//8 
f 10//10 12//12 37//37 
f 35//35 39//39 10//10 
f 9//9 40//40 35//35 
f 38//38 40//40 9//9 
f 14//14 1//1 12//12 
f 40//40 20//20 39//39 
f 28//28 20//20 40//40 
f 13//13 2//2 28//28 
f 28//28 3//3 20//20 
f 42//42 17//17 43//43 
f 17//17 4//4 16//16 
f 31//31 32//32 44//44 
f 24//24 45//45 17//17 
f 44//44 26//26 25//25 
f 17//17 18//18 4//4 
f 32//32 19//19 26//26 
f 19//19 27//27 26//26 
